<svg width="32" height="32" viewBox="0 0 32 32" fill="none" xmlns="http://www.w3.org/2000/svg">
  <rect width="32" height="32" rx="6" fill="#111111"/>
  <path d="M9.304 20.36C7.784 20.36 6.532 19.824 5.548 18.752C4.596 17.648 4.12 16.016 4.12 13.856C4.12 11.664 4.596 10.032 5.548 8.96C6.532 7.856 7.784 7.304 9.304 7.304C10.824 7.304 12.076 7.856 13.06 8.96C14.044 10.032 14.536 11.664 14.536 13.856C14.536 16.016 14.044 17.648 13.06 18.752C12.076 19.824 10.824 20.36 9.304 20.36ZM9.304 18.2C10.104 18.2 10.736 17.872 11.196 17.216C11.656 16.544 11.886 15.44 11.886 13.904C11.886 12.368 11.656 11.264 11.196 10.592C10.736 9.92 10.104 9.584 9.304 9.584C8.472 9.584 7.828 9.92 7.368 10.592C6.908 11.264 6.678 12.368 6.678 13.904C6.678 15.44 6.908 16.544 7.368 17.216C7.828 17.872 8.472 18.2 9.304 18.2Z" fill="white"/>
  <path d="M23.923 20.36C22.267 20.36 20.971 19.824 20.035 18.752C19.131 17.68 18.679 16.048 18.679 13.856C18.679 11.664 19.131 10.032 20.035 8.96C20.971 7.856 22.267 7.304 23.923 7.304C25.003 7.304 25.947 7.536 26.755 8.0C27.595 8.432 28.211 9.072 28.603 9.92L26.707 10.928C26.515 10.448 26.195 10.08 25.747 9.824C25.331 9.536 24.755 9.392 24.019 9.392C23.059 9.392 22.339 9.76 21.859 10.496C21.411 11.2 21.187 12.32 21.187 13.856C21.187 15.392 21.411 16.528 21.859 17.264C22.339 17.968 23.059 18.32 24.019 18.32C24.755 18.32 25.331 18.176 25.747 17.888C26.195 17.6 26.515 17.232 26.707 16.784L28.603 17.792C28.211 18.608 27.595 19.248 26.755 19.712C25.947 20.144 25.003 20.36 23.923 20.36Z" fill="#FF6352"/>
</svg> 