<svg width="360" height="45" viewBox="0 0 360 45" fill="none" xmlns="http://www.w3.org/2000/svg">
  <path d="M14.304 33.36C10.784 33.36 8.032 32.224 6.048 29.952C4.096 27.648 3.12 24.416 3.12 20.256C3.12 16.064 4.096 12.832 6.048 10.56C8.032 8.256 10.784 7.104 14.304 7.104C17.824 7.104 20.576 8.256 22.56 10.56C24.544 12.832 25.536 16.064 25.536 20.256C25.536 24.416 24.544 27.648 22.56 29.952C20.576 32.224 17.824 33.36 14.304 33.36ZM14.304 28.8C15.904 28.8 17.168 28.144 18.096 26.832C19.024 25.488 19.488 23.264 19.488 20.16C19.488 17.056 19.024 14.832 18.096 13.488C17.168 12.144 15.904 11.472 14.304 11.472C12.672 11.472 11.392 12.144 10.464 13.488C9.536 14.832 9.072 17.056 9.072 20.16C9.072 23.264 9.536 25.488 10.464 26.832C11.392 28.144 12.672 28.8 14.304 28.8Z" fill="white"/>
  <path d="M26.8883 32.88V19.632C26.8883 17.392 27.4243 15.6 28.4963 14.256C29.5683 12.912 31.0083 12.24 32.8163 12.24C34.2083 12.24 35.3603 12.624 36.2723 13.392C37.1843 14.16 37.7683 15.232 38.0243 16.608C38.5603 15.232 39.3363 14.16 40.3523 13.392C41.3683 12.624 42.5683 12.24 43.9603 12.24C46.1683 12.24 47.7683 13.008 48.7603 14.544C49.7843 16.048 50.2963 18.112 50.2963 20.736V32.88H44.6323V20.736C44.6323 19.52 44.4323 18.608 44.0323 18C43.6323 17.36 43.0323 17.04 42.2323 17.04C41.3923 17.04 40.7043 17.504 40.1683 18.432C39.6643 19.36 39.4083 20.704 39.4003 22.464V32.88H33.7363V20.736C33.7363 19.52 33.5363 18.608 33.1363 18C32.7363 17.36 32.1203 17.04 31.2883 17.04C30.4483 17.04 29.7683 17.504 29.2483 18.432C28.7283 19.36 28.4723 20.704 28.4803 22.464V32.88H26.8883Z" fill="white"/>
  <path d="M52.9521 32.88V12.72H58.6161V32.88H52.9521ZM52.9521 9.648V5.28H58.6161V9.648H52.9521Z" fill="white"/>
  <path d="M73.3508 33.36C70.3827 33.36 68.0627 32.496 66.3907 30.768C64.7507 29.008 63.9308 26.56 63.9308 23.424V12.72H69.5948V22.512C69.5948 24.56 69.9788 26.096 70.7468 27.12C71.5468 28.144 72.6827 28.656 74.1548 28.656C75.5947 28.656 76.7227 28.064 77.5387 26.88C78.3547 25.664 78.7627 23.808 78.7627 21.312V12.72H84.4267V32.88H79.4667L78.8108 29.712C78.2268 30.896 77.3468 31.824 76.1708 32.496C74.9948 33.072 73.6348 33.36 72.0747 33.36H73.3508Z" fill="white"/>
  <path d="M101.663 33.36C98.3349 33.36 95.7029 32.304 93.7669 30.192C91.8629 28.08 90.9109 24.928 90.9109 20.736C90.9109 16.544 91.8629 13.376 93.7669 11.232C95.7029 9.088 98.3349 8.016 101.663 8.016C103.615 8.016 105.343 8.448 106.847 9.312C108.383 10.144 109.503 11.36 110.207 12.96L106.415 14.784C106.031 13.888 105.423 13.184 104.591 12.672C103.791 12.128 102.831 11.856 101.711 11.856C99.9189 11.856 98.5189 12.528 97.5109 13.872C96.5349 15.184 96.0469 17.456 96.0469 20.688C96.0469 23.92 96.5349 26.224 97.5109 27.6C98.5189 28.944 99.9189 29.616 101.711 29.616C102.831 29.616 103.791 29.344 104.591 28.8C105.423 28.256 106.031 27.552 106.415 26.688L110.207 28.512C109.503 30.08 108.383 31.296 106.847 32.16C105.343 32.96 103.615 33.36 101.663 33.36Z" fill="white"/>
  <path d="M123.773 33.36C120.893 33.36 118.605 32.288 116.909 30.144C115.213 27.968 114.365 24.928 114.365 21.024C114.365 17.12 115.213 14.08 116.909 11.904C118.605 9.728 120.893 8.64 123.773 8.64C125.149 8.64 126.397 8.944 127.517 9.552C128.669 10.16 129.565 10.992 130.205 12.048L130.349 8.64H134.957V33.36H129.533V29.952L129.437 29.856C128.797 30.912 127.885 31.744 126.701 32.352C125.549 33.024 124.237 33.36 122.765 33.36H123.773ZM124.877 29.28C126.605 29.28 127.981 28.624 129.005 27.312C130.029 25.968 130.541 23.84 130.541 20.928C130.541 18.016 130.029 15.92 129.005 14.64C127.981 13.328 126.605 12.672 124.877 12.672C123.117 12.672 121.741 13.344 120.749 14.688C119.789 16 119.309 18.08 119.309 20.928C119.309 23.776 119.789 25.888 120.749 27.264C121.741 28.608 123.117 29.28 124.877 29.28Z" fill="#FF6352"/>
  <path d="M146.663 33.36C143.783 33.36 141.495 32.288 139.799 30.144C138.103 27.968 137.255 24.928 137.255 21.024C137.255 17.12 138.103 14.08 139.799 11.904C141.495 9.728 143.783 8.64 146.663 8.64C148.039 8.64 149.287 8.944 150.407 9.552C151.559 10.16 152.455 10.992 153.095 12.048L153.239 8.64H157.847V33.36H152.423V29.952L152.327 29.856C151.687 30.912 150.775 31.744 149.591 32.352C148.439 33.024 147.127 33.36 145.655 33.36H146.663ZM147.767 29.28C149.495 29.28 150.871 28.624 151.895 27.312C152.919 25.968 153.431 23.84 153.431 20.928C153.431 18.016 152.919 15.92 151.895 14.64C150.871 13.328 149.495 12.672 147.767 12.672C146.007 12.672 144.631 13.344 143.639 14.688C142.679 16 142.199 18.08 142.199 20.928C142.199 23.776 142.679 25.888 143.639 27.264C144.631 28.608 146.007 29.28 147.767 29.28Z" fill="#FF6352"/>
  <path d="M170.401 33.36C167.169 33.36 164.593 32.272 162.673 30.096C160.785 27.92 159.841 24.848 159.841 20.88C159.841 16.944 160.753 13.888 162.577 11.712C164.433 9.536 166.881 8.448 169.921 8.448C173.025 8.448 175.457 9.44 177.217 11.424C179.009 13.376 179.905 16.144 179.905 19.728V21.936H164.833C164.897 24.176 165.473 25.856 166.561 26.976C167.649 28.096 169.201 28.656 171.217 28.656C172.561 28.656 173.809 28.384 174.961 27.84C176.113 27.264 177.073 26.528 177.841 25.632L179.905 28.752C179.009 30.112 177.697 31.136 175.969 31.824C174.273 32.512 172.401 33.4 170.353 33.36H170.401ZM169.873 12.912C168.241 12.912 166.929 13.44 165.937 14.496C164.977 15.52 164.417 17.072 164.257 19.152H174.913C174.881 17.072 174.465 15.52 173.665 14.496C172.865 13.44 171.569 12.912 169.777 12.912H169.873Z" fill="#FF6352"/>
  <path d="M183.18 32.88V8.64H187.788L187.98 12.048C188.556 10.896 189.452 9.984 190.668 9.312C191.884 8.64 193.292 8.288 194.892 8.256H195.42V13.392H193.548C191.82 13.392 190.476 13.984 189.516 15.168C188.556 16.32 188.076 18 188.076 20.208V32.88H183.18Z" fill="#FF6352"/>
  <path d="M199.27 32.88V8.64H204.694V32.88H199.27ZM199.27 5.472V0.384H204.694V5.472H199.27Z" fill="#FF6352"/>
  <path d="M218.377 33.36C215.977 33.36 214.025 32.736 212.521 31.488C211.017 30.24 210.264 28.576 210.264 26.496C210.264 24.224 211.081 22.528 212.713 21.408C214.345 20.256 216.601 19.68 219.481 19.68H223.561V19.344C223.561 17.872 223.113 16.8 222.217 16.128C221.353 15.456 220.072 15.12 218.377 15.12C216.937 15.12 215.657 15.376 214.537 15.888C213.417 16.368 212.489 17.008 211.753 17.808L209.641 14.688C210.633 13.584 211.961 12.72 213.625 12.096C215.289 11.472 217.097 11.16 219.049 11.16C222.281 11.16 224.777 11.904 226.537 13.392C228.297 14.88 229.177 17.04 229.177 19.872V32.88H224.713L224.185 29.952C223.513 31.008 222.553 31.856 221.305 32.496C220.089 33.104 218.665 33.08 217.033 32.784L218.377 33.36ZM219.577 29.712C221.017 29.712 222.201 29.28 223.129 28.416C224.089 27.552 224.569 26.432 224.569 25.056V22.944H220.153C217.081 22.944 215.544 24.032 215.544 26.208C215.544 27.264 215.913 28.08 216.649 28.656C217.417 29.2 218.377 29.72 219.529 29.712H219.577Z" fill="#FF6352"/>
</svg> 